#N canvas 550 24 1255 878 12;
#X obj 383 76 netreceive -u -b 3333;
#X obj 383 119 list tosymbol;
#X obj 383 157 list fromsymbol;
#X floatatom 383 228 5 0 0 0 - - - 0;
#X obj 383 193 list split 2;
#X obj 383 267 sel 97 98 99;
#X floatatom 566 460 6 0 0 0 - - - 0;
#X obj 495 267 list;
#X floatatom 495 362 5 0 0 0 - - - 0;
#X floatatom 495 396 5 0 0 0 - - - 0;
#X obj 383 329 bng 19 250 50 0 empty empty empty 0 -10 0 12 #fcfcfc #000000 #000000;
#X obj 410 329 bng 19 250 50 0 empty empty empty 0 -10 0 12 #fcfcfc #000000 #000000;
#X obj 437 329 bng 19 250 50 0 empty empty empty 0 -10 0 12 #fcfcfc #000000 #000000;
#X obj 165 641 dac~;
#X obj 285 489 readsf~ 2;
#X obj 286 536 *~;
#X obj 374 490 bng 19 250 50 0 empty empty empty 0 -10 0 12 #fcfcfc #000000 #000000;
#X obj 88 368 readsf~ 2;
#X obj 112 408 bng 19 250 50 0 empty empty empty 0 -10 0 12 #fcfcfc #000000 #000000;
#X obj 167 404 readsf~ 2;
#X obj 286 405 bng 19 250 50 0 empty empty empty 0 -10 0 12 #fcfcfc #000000 #000000;
#X obj 88 441 *~;
#X obj 166 451 *~;
#X obj 477 600 f;
#X floatatom 513 639 5 0 0 0 - - - 0;
#X obj 450 600 f;
#X floatatom 467 638 5 0 0 0 - - - 0;
#X obj 423 600 f;
#X floatatom 423 638 5 0 0 0 - - - 0;
#X obj 495 462 t f f f;
#X obj 159 288 t f f f;
#X obj 88 125 loadbang;
#X obj 88 161 t b b b b;
#X obj 159 248 f 0.02;
#X obj 227 213 metro 10000;
#X obj 227 247 bng 19 250 50 0 empty empty empty 0 -10 0 12 #fcfcfc #000000 #000000;
#X msg 338 403 0;
#X msg 336 355 1;
#X obj 464 329 bng 19 250 50 0 empty empty empty 0 -10 0 12 #feffc6 #000000 #000000;
#X msg 88 328 open a_track.wav \, 1;
#X msg 167 368 open b_track.wav \, 1;
#X msg 285 434 open c_track.wav \, 1;
#X obj 495 330 expr ($f1 - 48);
#X obj 495 430 * 8;
#X connect 0 0 1 0;
#X connect 1 0 2 0;
#X connect 2 0 4 0;
#X connect 3 0 5 0;
#X connect 4 0 3 0;
#X connect 4 1 7 0;
#X connect 5 0 10 0;
#X connect 5 1 11 0;
#X connect 5 2 12 0;
#X connect 5 3 38 0;
#X connect 7 0 42 0;
#X connect 8 0 9 0;
#X connect 9 0 43 0;
#X connect 10 0 27 0;
#X connect 10 0 36 0;
#X connect 11 0 25 0;
#X connect 11 0 36 0;
#X connect 12 0 23 0;
#X connect 12 0 36 0;
#X connect 14 0 15 0;
#X connect 14 2 16 0;
#X connect 15 0 13 0;
#X connect 15 0 13 1;
#X connect 16 0 41 0;
#X connect 17 0 21 0;
#X connect 17 2 18 0;
#X connect 18 0 39 0;
#X connect 19 0 22 0;
#X connect 19 2 20 0;
#X connect 20 0 40 0;
#X connect 21 0 13 1;
#X connect 21 0 13 0;
#X connect 22 0 13 0;
#X connect 22 0 13 1;
#X connect 23 0 24 0;
#X connect 23 0 15 1;
#X connect 25 0 26 0;
#X connect 25 0 22 1;
#X connect 27 0 28 0;
#X connect 27 0 21 1;
#X connect 29 0 27 1;
#X connect 29 1 25 1;
#X connect 29 2 23 1;
#X connect 30 0 21 1;
#X connect 30 1 22 1;
#X connect 30 2 15 1;
#X connect 31 0 32 0;
#X connect 32 0 39 0;
#X connect 32 1 40 0;
#X connect 32 2 41 0;
#X connect 32 3 34 0;
#X connect 33 0 30 0;
#X connect 34 0 35 0;
#X connect 34 0 33 0;
#X connect 36 0 34 0;
#X connect 37 0 34 0;
#X connect 38 0 37 0;
#X connect 39 0 17 0;
#X connect 40 0 19 0;
#X connect 41 0 14 0;
#X connect 42 0 8 0;
#X connect 43 0 6 0;
#X connect 43 0 29 0;
